<svg
    version="1.1"
    id="svg2"
    width="154.66667"
    height="69.333336"
    viewBox="0 0 154.66667 69.333336"
    sodipodi:docname="boleto.eps"
    xmlns:inkscape="http://www.inkscape.org/namespaces/inkscape"
    xmlns:sodipodi="http://sodipodi.sourceforge.net/DTD/sodipodi-0.dtd"
    xmlns="http://www.w3.org/2000/svg"
    xmlns:svg="http://www.w3.org/2000/svg">
    <defs
        id="defs6" />
    <sodipodi:namedview
        id="namedview4"
        pagecolor="#ffffff"
        bordercolor="#000000"
        borderopacity="0.25"
        inkscape:showpageshadow="2"
        inkscape:pageopacity="0.0"
        inkscape:pagecheckerboard="0"
        inkscape:deskcolor="#d1d1d1" />
    <g
        id="g8"
        inkscape:groupmode="layer"
        inkscape:label="ink_ext_XXXXXX"
        transform="matrix(1.3333333,0,0,-1.3333333,0,69.333333)">
        <g
            id="g10"
            transform="scale(0.1)">
            <path
                d="M 87.5938,513.156 H 142.016 V 3.57422 H 87.5938 V 513.156"
                style="fill:#231f20;fill-opacity:1;fill-rule:evenodd;stroke:none"
                id="path12" />
            <path
                d="m 159.168,513.156 h 16.863 V 3.57422 H 159.168 V 513.156"
                style="fill:#231f20;fill-opacity:1;fill-rule:evenodd;stroke:none"
                id="path14" />
            <path
                d="m 190.734,513.156 h 30.188 V 3.57422 H 190.734 V 513.156"
                style="fill:#231f20;fill-opacity:1;fill-rule:evenodd;stroke:none"
                id="path16" />
            <path
                d="m 250.027,513.156 h 16.864 V 3.57422 H 250.027 V 513.156"
                style="fill:#231f20;fill-opacity:1;fill-rule:evenodd;stroke:none"
                id="path18" />
            <path
                d="m 274.227,513.156 h 13 V 3.57422 h -13 V 513.156"
                style="fill:#231f20;fill-opacity:1;fill-rule:evenodd;stroke:none"
                id="path20" />
            <path
                d="M 46.207,513.156 H 63.0742 V 3.57422 H 46.207 V 513.156"
                style="fill:#231f20;fill-opacity:1;fill-rule:evenodd;stroke:none"
                id="path22" />
            <path
                d="M 9.01563,513.156 H 39.2031 V 3.57422 H 9.01563 V 513.156"
                style="fill:#231f20;fill-opacity:1;fill-rule:evenodd;stroke:none"
                id="path24" />
            <path
                d="m 377.359,513.156 h 54.422 V 3.57422 H 377.359 V 513.156"
                style="fill:#231f20;fill-opacity:1;fill-rule:evenodd;stroke:none"
                id="path26" />
            <path
                d="m 448.934,513.156 h 16.863 V 3.57422 H 448.934 V 513.156"
                style="fill:#231f20;fill-opacity:1;fill-rule:evenodd;stroke:none"
                id="path28" />
            <path
                d="m 480.5,513.156 h 30.188 V 3.57422 H 480.5 V 513.156"
                style="fill:#231f20;fill-opacity:1;fill-rule:evenodd;stroke:none"
                id="path30" />
            <path
                d="m 539.793,513.156 h 16.863 V 3.57422 H 539.793 V 513.156"
                style="fill:#231f20;fill-opacity:1;fill-rule:evenodd;stroke:none"
                id="path32" />
            <path
                d="m 563.992,513.156 h 13 V 3.57422 h -13 V 513.156"
                style="fill:#231f20;fill-opacity:1;fill-rule:evenodd;stroke:none"
                id="path34" />
            <path
                d="M 335.977,513.156 H 352.84 V 3.57422 H 335.977 V 513.156"
                style="fill:#231f20;fill-opacity:1;fill-rule:evenodd;stroke:none"
                id="path36" />
            <path
                d="m 298.781,513.156 h 30.188 V 3.57422 H 298.781 V 513.156"
                style="fill:#231f20;fill-opacity:1;fill-rule:evenodd;stroke:none"
                id="path38" />
            <path
                d="m 598.371,513.156 h 30.192 V 3.57422 H 598.371 V 513.156"
                style="fill:#231f20;fill-opacity:1;fill-rule:evenodd;stroke:none"
                id="path40" />
            <path
                d="m 657.664,513.156 h 16.867 V 3.57422 H 657.664 V 513.156"
                style="fill:#231f20;fill-opacity:1;fill-rule:evenodd;stroke:none"
                id="path42" />
            <path
                d="m 681.867,513.156 h 12.996 V 3.57422 H 681.867 V 513.156"
                style="fill:#231f20;fill-opacity:1;fill-rule:evenodd;stroke:none"
                id="path44" />
            <path
                d="M 743.613,513.156 H 760.48 V 3.57422 H 743.613 V 513.156"
                style="fill:#231f20;fill-opacity:1;fill-rule:evenodd;stroke:none"
                id="path46" />
            <path
                d="m 706.422,513.156 h 30.187 V 3.57422 H 706.422 V 513.156"
                style="fill:#231f20;fill-opacity:1;fill-rule:evenodd;stroke:none"
                id="path48" />
            <path
                d="m 782.898,513.156 h 16.868 V 3.57422 H 782.898 V 513.156"
                style="fill:#231f20;fill-opacity:1;fill-rule:evenodd;stroke:none"
                id="path50" />
            <path
                d="m 807.102,513.156 h 12.996 V 3.57422 H 807.102 V 513.156"
                style="fill:#231f20;fill-opacity:1;fill-rule:evenodd;stroke:none"
                id="path52" />
            <path
                d="m 868.848,513.156 h 16.867 V 3.57422 H 868.848 V 513.156"
                style="fill:#231f20;fill-opacity:1;fill-rule:evenodd;stroke:none"
                id="path54" />
            <path
                d="m 831.656,513.156 h 30.188 V 3.57422 H 831.656 V 513.156"
                style="fill:#231f20;fill-opacity:1;fill-rule:evenodd;stroke:none"
                id="path56" />
            <path
                d="m 900.414,513.156 h 54.422 V 3.57422 H 900.414 V 513.156"
                style="fill:#231f20;fill-opacity:1;fill-rule:evenodd;stroke:none"
                id="path58" />
            <path
                d="m 971.988,513.156 h 16.864 V 3.57422 H 971.988 V 513.156"
                style="fill:#231f20;fill-opacity:1;fill-rule:evenodd;stroke:none"
                id="path60" />
            <path
                d="m 1003.55,513.156 h 30.19 V 3.57422 h -30.19 V 513.156"
                style="fill:#231f20;fill-opacity:1;fill-rule:evenodd;stroke:none"
                id="path62" />
            <path
                d="m 1062.85,513.156 h 16.86 V 3.57422 h -16.86 V 513.156"
                style="fill:#231f20;fill-opacity:1;fill-rule:evenodd;stroke:none"
                id="path64" />
            <path
                d="m 1087.05,513.156 h 13 V 3.57422 h -13 V 513.156"
                style="fill:#231f20;fill-opacity:1;fill-rule:evenodd;stroke:none"
                id="path66" />
            <path
                d="m 1121.43,513.156 h 30.19 V 3.57422 h -30.19 V 513.156"
                style="fill:#231f20;fill-opacity:1;fill-rule:evenodd;stroke:none"
                id="path68" />
            <path
                d="M 70.582,2.42188 H 1113.74 V 288.027 H 70.582 V 2.42188"
                style="fill:#ffffff;fill-opacity:1;fill-rule:evenodd;stroke:none"
                id="path70" />
            <path
                d="M 90.2461,13.3789 V 271.781 h 96.9609 c 19.731,0 35.547,-2.586 47.516,-7.82 11.91,-5.231 21.234,-13.293 27.972,-24.18 6.797,-10.828 10.164,-22.195 10.164,-34.105 0,-11.008 -3.007,-21.414 -8.964,-31.156 -5.954,-9.747 -14.973,-17.625 -27.063,-23.641 15.637,-4.57 27.664,-12.391 36.027,-23.457 8.422,-11.008 12.629,-24.059 12.629,-39.0978 0,-12.1484 -2.582,-23.3984 -7.699,-33.8047 -5.113,-10.4023 -11.426,-18.4023 -18.945,-24.0586 -7.52,-5.5937 -16.961,-9.8632 -28.27,-12.75 -11.371,-2.8867 -25.261,-4.332 -41.742,-4.332 z M 124.531,163.152 h 55.879 c 15.156,0 26.043,1.024 32.602,3.008 8.722,2.586 15.273,6.914 19.664,12.93 4.394,6.015 6.621,13.535 6.621,22.617 0,8.602 -2.047,16.18 -6.195,22.676 -4.094,6.555 -9.985,11.07 -17.625,13.476 -7.641,2.403 -20.754,3.606 -39.278,3.606 h -51.668 z m 0,-119.4567 h 64.36 c 11.066,0 18.824,0.4219 23.336,1.2617 7.82,1.3828 14.437,3.7305 19.73,7.0391 5.293,3.3086 9.625,8.1172 13.051,14.4336 3.43,6.3164 5.113,13.5937 5.113,21.8359 0,9.6836 -2.465,18.0434 -7.457,25.2034 -4.934,7.156 -11.789,12.148 -20.57,15.035 -8.723,2.887 -21.356,4.332 -37.774,4.332 H 124.531 V 43.6953"
                style="fill:#231f20;fill-opacity:1;fill-rule:nonzero;stroke:none"
                id="path72" />
            <path
                d="m 316.527,107.035 c 0,34.582 9.625,60.207 28.934,76.867 16.059,13.836 35.727,20.75 58.887,20.75 25.679,0 46.734,-8.418 63.093,-25.261 16.301,-16.782 24.481,-40.059 24.481,-69.711 0,-24.0628 -3.609,-42.9456 -10.824,-56.723 C 473.879,39.1836 463.352,28.4766 449.516,20.8359 435.742,13.1992 420.645,9.41016 404.348,9.41016 c -26.227,0 -47.399,8.35934 -63.578,25.14064 -16.18,16.7812 -24.243,40.9648 -24.243,72.4842 z m 32.481,-0.062 c 0,-23.9417 5.234,-41.8636 15.699,-53.7152 10.523,-11.9101 23.699,-17.8633 39.641,-17.8633 15.757,0 28.871,5.9532 39.394,17.9258 10.465,11.9688 15.703,30.1953 15.703,54.6757 0,23.094 -5.297,40.598 -15.82,52.449 -10.531,11.91 -23.641,17.864 -39.277,17.864 -15.942,0 -29.118,-5.895 -39.641,-17.743 -10.465,-11.851 -15.699,-29.714 -15.699,-53.593"
                style="fill:#231f20;fill-opacity:1;fill-rule:nonzero;stroke:none"
                id="path74" />
            <path
                d="M 528.434,13.3789 V 271.781 h 31.757 V 13.3789 h -31.757"
                style="fill:#231f20;fill-opacity:1;fill-rule:nonzero;stroke:none"
                id="path76" />
            <path
                d="m 737.09,74.0078 32.84,-4.3281 C 764.82,50.6133 755.254,35.7578 741.301,25.2266 727.348,14.7031 709.543,9.41016 687.828,9.41016 c -27.305,0 -48.961,8.41794 -64.961,25.26174 -16,16.7812 -24,40.4219 -24,70.7971 0,31.394 8.059,55.816 24.242,73.14 16.18,17.383 37.172,26.043 62.977,26.043 24.961,0 45.352,-8.476 61.172,-25.504 15.816,-17.019 23.754,-40.96 23.754,-71.816 0,-1.863 -0.059,-4.691 -0.176,-8.4218 H 631.348 c 1.203,-20.5079 6.98,-36.2657 17.445,-47.1563 10.406,-10.8867 23.457,-16.3594 39.035,-16.3594 11.61,0 21.535,3.0664 29.711,9.2032 8.242,6.1328 14.738,15.9375 19.551,29.4101 z M 633.152,124.898 h 104.301 c -1.387,15.758 -5.414,27.547 -11.973,35.426 -10.042,12.211 -23.156,18.348 -39.218,18.348 -14.555,0 -26.762,-4.875 -36.688,-14.621 -9.863,-9.742 -15.34,-22.793 -16.422,-39.153"
                style="fill:#231f20;fill-opacity:1;fill-rule:nonzero;stroke:none"
                id="path78" />
            <path
                d="m 878.984,41.707 4.329,-28.0273 c -8.899,-1.8633 -16.903,-2.8242 -23.879,-2.8242 -11.489,0 -20.387,1.8008 -26.766,5.4726 -6.316,3.668 -10.766,8.418 -13.352,14.375 -2.589,5.9532 -3.851,18.4649 -3.851,37.5313 V 176.145 h -23.457 v 24.539 h 23.457 V 247 l 31.758,19.066 v -65.382 h 31.761 V 176.145 H 847.223 V 66.4297 c 0,-9.082 0.543,-14.9141 1.687,-17.5 1.078,-2.5899 2.887,-4.6328 5.41,-6.1992 2.528,-1.5 6.137,-2.2813 10.828,-2.2813 3.489,0 8.122,0.418 13.836,1.2578"
                style="fill:#231f20;fill-opacity:1;fill-rule:nonzero;stroke:none"
                id="path80" />
            <path
                d="m 898.41,107.035 c 0,34.582 9.629,60.207 28.934,76.867 16.058,13.836 35.726,20.75 58.886,20.75 25.68,0 46.73,-8.418 63.1,-25.261 16.3,-16.782 24.48,-40.059 24.48,-69.711 0,-24.0628 -3.61,-42.9456 -10.83,-56.723 -7.22,-13.7734 -17.74,-24.4804 -31.58,-32.1211 -13.77,-7.6367 -28.87,-11.42574 -45.17,-11.42574 -26.226,0 -47.398,8.35934 -63.578,25.14064 C 906.473,51.332 898.41,75.5156 898.41,107.035 Z m 32.485,-0.062 c 0,-23.9417 5.23,-41.8636 15.695,-53.7152 10.527,-11.9101 23.703,-17.8633 39.64,-17.8633 15.76,0 28.87,5.9532 39.4,17.9258 10.46,11.9688 15.7,30.1953 15.7,54.6757 0,23.094 -5.29,40.598 -15.82,52.449 -10.53,11.91 -23.64,17.864 -39.28,17.864 -15.937,0 -29.113,-5.895 -39.64,-17.743 -10.465,-11.851 -15.695,-29.714 -15.695,-53.593"
                style="fill:#231f20;fill-opacity:1;fill-rule:nonzero;stroke:none"
                id="path82" />
        </g>
    </g>
</svg>
