<?xml version="1.0" encoding="UTF-8" standalone="no"?>
<!-- Created with Inkscape (http://www.inkscape.org/) -->

<svg
    width="24"
    height="24"
    viewBox="0 0 32 32"
    version="1.1"
    id="svg1"
    xml:space="preserve"
    xmlns="http://www.w3.org/2000/svg"
    xmlns:svg="http://www.w3.org/2000/svg"><defs
     id="defs1"><style
       id="style1">.cls-1{fill:red;}.cls-2{fill:#1d1d1b;}</style><style
    id="style1-2">.cls-1{fill:#3d73b9;}.cls-1,.cls-2{fill-rule:evenodd;}.cls-2,.cls-3{fill:#1d1d1b;}</style></defs><g
    id="g1"
    transform="matrix(1.3333333,0,0,1.3333333,42,0)"><path
       id="path2"
       d="m -27.206429,4.2789296 12.62373,-4.26578211 2.215483,10.58315151 4.8488512,-1.6198547 -4.6518352,7.8797857 -0.04814,0.01623 c 0,0 -0.423378,0.149116 -0.558096,0.04971 -0.134719,-0.09941 0.153939,-0.795486 0.30788,-1.267897 0.154025,-0.472301 0.442685,-1.615866 0.692902,-2.2623 0.25013,-0.646324 0.615845,-1.168393 0.712036,-1.218162 0.09619,-0.04966 0.15394,-0.49724 0.115498,-0.696092 -0.03853,-0.198852 0,-0.422643 -0.153941,-0.422643 -0.154025,0 -0.269437,0.596667 -0.481212,0.944712 -0.211689,0.348047 -0.692729,1.525528 -1.096972,2.603474 -0.404157,1.077946 -1.197711,2.316224 -1.59243,2.822986 -0.423377,0.432808 -0.08195,-0.404665 -0.04342,-0.65324 0.03844,-0.248564 0.288659,-0.944712 0.288659,-0.944712 0,0 0.346407,-0.497241 -0.09619,-0.323217 -0.442684,0.174133 -0.846841,1.01932 -0.846841,1.01932 0,0 -1.097058,1.765081 -1.481908,2.11315 -0.384936,0.348079 -0.288745,-0.198863 -0.211689,-0.745806 0.07697,-0.546942 0.558097,-1.193333 0.558097,-1.193333 l 0.192468,-0.09946 c 0,0 -0.115498,0.546986 -0.01922,0.52209 0.09619,-0.02485 0.211688,-0.248575 0.230909,-0.447483 0.01923,-0.198873 0,-1.019287 -0.115497,-0.919861 -0.115412,0.09943 -0.731258,0.820403 -0.923812,1.118769 -0.192382,0.298322 -0.885198,1.417013 -1.135414,1.939105 -0.250217,0.522079 -0.07697,-0.273428 -0.07697,-0.273428 0,0 0.09619,-0.447527 0.115499,-0.646401 0.01922,-0.198862 -0.192469,-0.09946 -0.192469,-0.09946 l -0.288744,0.372931 c 0,0 -0.05775,0.07456 -0.05775,0.37293 0,0.298278 -0.288659,0.720911 -0.577317,0.944669 -0.288745,0.223725 -0.173248,-0.198863 -0.173248,-0.198863 0,0 0.09628,-0.522092 0.384936,-1.143587 0.288659,-0.62154 0.596625,-0.671252 0.769786,-0.7707 0.173247,-0.09942 0.09628,-0.248621 0.03853,-0.37293 -0.05775,-0.124266 -0.248243,-0.03455 -0.307966,0.02485 -0.132059,0.134486 -2.274433,2.446898 -2.367192,2.859012 -0.09276,0.412069 0.21169,0.09942 0.21169,0.09942 l 0.847013,-1.189187 0.03835,-0.05386 -0.01931,0.273515 c 0,0 -0.250217,0.571749 -0.192469,0.96953 0.06316,0.321089 0.250475,0.250859 0.385194,0.239997 0.134719,-0.0248 0.4039,-0.513467 0.577061,-0.687491 0.173246,-0.174012 0.192467,0.02486 0.250302,0.174024 0.05766,0.149205 0.30788,-0.04971 0.30788,-0.04971 0,0 0.577403,-1.019277 0.712123,-1.243035 0.134718,-0.223726 0.307879,-0.223726 0.307879,-0.223726 0,0 -0.07697,0.298323 0.115499,0.696104 0.192467,0.397782 0.538875,0.09946 0.750564,-0.07459 0.211689,-0.174023 0.885284,-1.267897 1.03931,-1.541323 0.153939,-0.273515 0.365628,-0.323217 0.365628,-0.323217 0,0 -0.115498,0.870114 -0.07697,1.093873 0.03844,0.223724 0.327187,0.273426 0.673595,-0.149161 0.346321,-0.422588 1.072774,-1.801638 1.072774,-1.801638 0,0 -0.187405,0.682947 -0.129742,1.204994 0.05766,0.522003 0.402526,0.371577 0.551747,0.311833 0.120732,-0.10335 0.256223,-0.197267 0.368976,-0.272817 l -3.927699,6.653212 -5.363272,-3.033632 c 0.172474,-0.663882 0.767297,-2.953393 0.789093,-3.037866 0.590103,-0.239177 1.162444,-0.472168 1.162444,-0.472168 0.05663,-0.177781 0.119445,-0.429992 0.247042,-0.726541 0.127511,-0.296538 -0.178653,-0.230686 -0.178653,-0.230686 0,0 -0.521371,0.496365 -0.750993,0.595258 -0.317234,0.212165 -0.192897,-0.232769 -0.192897,-0.232769 0,0 0.459245,-1.219248 0.612242,-1.713607 0.153081,-0.494246 0.586756,-0.494246 0.943976,-0.69199 0.357133,-0.197744 2.780615,-1.186349 3.188805,-1.384093 0.40819,-0.197743 0.331649,-0.988607 0.331649,-0.988607 0,0 -0.433674,0.296616 -0.765324,0.428408 -0.331649,0.131902 -2.57665,1.252301 -2.831671,1.417014 -0.255108,0.164823 -0.127597,-0.131793 -0.127597,-0.362457 0,-0.230774 -0.127511,-0.131791 -0.127511,-0.131791 0,0 -0.306164,0.197632 -0.510216,0.263583 -0.204138,0.06595 -0.331649,0.527279 -0.331649,0.527279 0,0 -2.015378,1.186349 -2.449052,1.84542 -0.433761,0.659038 0.255108,0.362457 0.255108,0.362457 0,0 1.938836,-1.482965 1.785755,-1.120399 -0.153082,0.362456 -0.81638,2.372611 -0.81638,2.372611 0,0 -0.637726,0.560232 -0.867349,0.790929 -0.229623,0.230642 -0.127511,0.692024 -0.127511,0.692024 0,0 0.918319,-0.955664 0.816293,-0.659082 -0.08504,0.247146 -0.382704,1.729933 -0.479496,2.217298 l -7.672673,-4.339969 4.681681,-1.619933 z m 9.690291,11.9202464 c 0,0 0.515535,-0.792636 0.589159,-1.046355 0.07363,-0.253608 0.392744,-0.285309 0.368203,0 -0.02454,0.28542 -0.540078,0.856149 -0.540078,0.856149 0,0 -0.245411,0.380512 -0.368202,0.380512 -0.122706,0 -0.04908,-0.190306 -0.04908,-0.190306 z m 3.573483,-1.318252 c 0,0 -0.161662,0.02982 -0.13858,-0.328317 0.02317,-0.358021 0.09242,-0.298388 0.230995,-0.447582 0.138667,-0.149195 0.254165,-0.358022 0.254165,-0.05963 0,0.29839 -0.02308,0.447584 -0.138666,0.626595 -0.115499,0.179122 -0.207914,0.208939 -0.207914,0.208939"
       style="fill:#e21b5d;fill-opacity:1;fill-rule:evenodd;stroke:none;stroke-width:0.00975255" /><path
    id="path3"
    d="m -30.842655,9.8147476 2.822121,-0.9453775 c 0.512602,-0.1718069 0.943385,-0.2530537 1.292281,-0.2438546 0.366864,-0.00771 0.672359,0.064071 0.916303,0.2153678 0.243987,0.1512997 0.427437,0.3845131 0.550349,0.6997498 0.05108,0.1309052 0.09144,0.2819834 0.121101,0.4530138 0.195925,1.2612801 -0.502339,2.1586611 -2.094725,2.6921481 l -0.989841,0.331641 0.319266,1.743557 -1.930522,0.646767 z M -19.582916,6.212248 h 0.01656 c 0.06229,-0.055861 0.127168,-0.1099552 0.194441,-0.1621625 0.355075,-0.2752225 0.78077,-0.4960212 1.277084,-0.6621746 0.267208,-0.089559 0.502408,-0.1505243 0.705516,-0.1828901 0.203194,-0.032481 0.425437,-0.039789 0.666644,-0.021947 0.416685,0.024944 0.779482,0.1488617 1.088306,0.3716553 0.308824,0.2227947 0.541707,0.5354816 0.69865,0.9379509 l 0.01141,0.029158 -1.043513,0.3495974 v 0.6332448 l 1.22105,-0.4090101 0.54823,3.0898509 -1.227058,0.411005 -0.182256,-0.514643 c -0.102364,0.177016 -0.222415,0.338736 -0.359966,0.485381 v 0.01032 h -0.0098 c -0.325985,0.343723 -0.749277,0.602984 -1.270219,0.77745 -0.752538,0.252168 -1.414892,0.257488 -1.986889,0.01586 -0.572084,-0.241526 -0.977184,-0.667827 -1.215475,-1.278903 l -0.119444,-0.3300896 -0.05337,-0.3029326 C -20.781,8.5797566 -20.649369,7.7708259 -20.228394,7.03206 c 0.171358,-0.3011606 0.386479,-0.5693993 0.645449,-0.804829 z m -9.089932,4.257358 0.208488,1.246205 0.834383,-0.279546 c 0.239928,-0.08036 0.41979,-0.216032 0.539553,-0.407014 0.119762,-0.190872 0.139979,-0.388171 0.06054,-0.5919 -0.119162,-0.305483 -0.47597,-0.358688 -1.070355,-0.159614 z m 4.063286,-2.7430241 1.971444,-0.6604012 3.116813,4.8859463 -1.922276,0.643996 -0.37052,-0.665389 -1.930429,0.646657 -0.07946,0.816245 -1.881431,0.630252 z m 1.028411,3.5622621 1.218906,-0.408233 -0.969118,-1.797426 z m 11.71128,-7.9863277 c 0.867092,-0.2905192 1.592772,-0.3032662 2.1769544,-0.038465 0.2774189,0.1264715 0.5290944,0.3052611 0.7550275,0.5367 0.1055436,0.1127276 0.1998464,0.2359847 0.2829083,0.3698819 0.083066,0.1340092 0.1585744,0.288191 0.2267061,0.4627692 l 0.1077751,0.276441 0.055258,0.2365385 c 0.109148,0.5171919 0.08933,1.0474641 -0.059465,1.5908145 -0.1487914,0.5433515 -0.4394248,1.0354925 -0.8717256,1.4764253 -0.4323024,0.4409317 -0.9729798,0.7701349 -1.6218608,0.9874976 -0.87799,0.2941768 -1.611908,0.3055934 -2.201668,0.03436 -0.589846,-0.2712327 -1.003871,-0.712387 -1.24216,-1.323463 l -0.05484,-0.2119308 -0.06907,-0.2482875 -0.05775,-0.2191361 c -0.08409,-0.5475629 -0.05492,-1.0659743 0.08735,-1.5550127 0.142183,-0.4890374 0.428611,-0.9523605 0.859111,-1.389967 0.430586,-0.4376076 0.973066,-0.7660343 1.627439,-0.9851704 z m 0.22928,1.3706804 c -0.839805,0.2814298 -1.081699,1.099893 -0.725681,2.4557207 0.262831,0.6740343 0.696935,0.9096868 1.302312,0.7069551 0.47984,-0.1608333 0.770815,-0.4899246 0.872755,-0.9873869 0.101943,-0.4974622 0.05938,-0.9863899 -0.127854,-1.4664497 -0.122963,-0.3152367 -0.294837,-0.5386949 -0.515707,-0.670265 -0.220871,-0.1316819 -0.489537,-0.1445396 -0.805825,-0.038573"
    style="fill:#ffffff;fill-opacity:1;fill-rule:nonzero;stroke:none;stroke-width:0.00975255" /><path
    id="path4"
    d="m -30.842687,9.8147248 2.822194,-0.9454035 c 0.512587,-0.171795 0.943338,-0.2529756 1.292241,-0.2437635 0.366871,-0.00782 0.672371,0.063974 0.91633,0.2152799 0.24396,0.1513008 0.427379,0.3846325 0.550348,0.6998117 0.05108,0.1309171 0.09144,0.2819497 0.121077,0.4529421 0.195902,1.2613335 -0.502329,2.1587705 -2.094747,2.6921795 l -0.989821,0.331597 0.319278,1.743655 -1.93051,0.646766 z m 11.259809,-3.6024409 0.01657,3.36e-5 c 0.06223,-0.05597 0.127131,-0.1100659 0.194407,-0.1621777 0.355083,-0.2752724 0.780779,-0.4960863 1.27707,-0.6622832 0.267153,-0.089515 0.502399,-0.1504472 0.705536,-0.1828749 0.203209,-0.032459 0.425391,-0.039692 0.666635,-0.021871 0.416661,0.024923 0.7795,0.1488346 1.088286,0.3715935 0.308816,0.222824 0.541756,0.5354815 0.69872,0.9379356 l 0.01137,0.02918 -1.043494,0.3495594 -4.1e-5,0.6333033 1.220984,-0.4090339 0.548273,3.0898094 -1.227043,0.411132 -0.18221,-0.514765 c -0.102407,0.177033 -0.222482,0.338763 -0.359977,0.485395 l 4.1e-5,0.01032 -0.0098,-3.9e-5 c -0.325987,0.343783 -0.749289,0.603061 -1.270191,0.777566 -0.752599,0.252062 -1.414853,0.257383 -1.98689,0.01586 -0.572067,-0.241589 -0.977188,-0.667881 -1.215462,-1.278918 L -20.569587,9.7618801 -20.622999,9.45903 c -0.157909,-0.8793299 -0.02636,-1.688253 0.394687,-2.4270157 0.171349,-0.3010855 0.386419,-0.5693188 0.645428,-0.8047823 z m -9.089945,4.2573481 0.208431,1.246128 0.834411,-0.27949 c 0.239955,-0.08039 0.419787,-0.216057 0.539569,-0.407003 0.119737,-0.190855 0.139947,-0.388192 0.06051,-0.591892 -0.119173,-0.305505 -0.47593,-0.358772 -1.070358,-0.159614 z m 4.063296,-2.7429991 1.971402,-0.6605119 3.116833,4.886068 -1.922325,0.643954 -0.370464,-0.665482 -1.930509,0.646765 -0.0794,0.816181 -1.881405,0.630272 z m 1.028388,3.5622991 1.218858,-0.408319 -0.96907,-1.797467 z m 11.711225,-7.9864863 c 0.867089,-0.2904888 1.592816,-0.3032368 2.1770248,-0.03841 0.2774052,0.1264465 0.5290723,0.3052687 0.75494,0.5367163 0.10555,0.1126603 0.1998896,0.236039 0.2829378,0.3699428 0.083077,0.1339689 0.1586546,0.2881366 0.2267473,0.4627235 l 0.1077887,0.2764833 0.055216,0.2364376 c 0.1091776,0.5172201 0.089362,1.047489 -0.059423,1.5908731 -0.1488515,0.5434112 -0.4393636,1.0355153 -0.8717245,1.4764579 -0.4322897,0.4409154 -0.9730051,0.7700882 -1.6219011,0.9875031 -0.877963,0.2940724 -1.611883,0.305564 -2.201673,0.034294 -0.58979,-0.2712728 -1.003866,-0.7123348 -1.242097,-1.3234641 l -0.05487,-0.2119145 -0.06914,-0.2483114 -0.05766,-0.2190959 c -0.08412,-0.5476312 -0.05499,-1.0659775 0.08731,-1.5550116 0.1422,-0.4890722 0.428629,-0.9523691 0.859159,-1.389993 0.43056,-0.4375599 0.973013,-0.7660202 1.627347,-0.9852269 z m 0.229302,1.3707684 c -0.839718,0.2813842 -1.081668,1.0999255 -0.725677,2.4556349 0.262834,0.6741451 0.696959,0.9097888 1.302304,0.7069573 0.479865,-0.1607041 0.770821,-0.4898258 0.872795,-0.9873391 0.101974,-0.4975122 0.05935,-0.9863606 -0.127887,-1.4663879 -0.122925,-0.3152703 -0.294838,-0.5387752 -0.515682,-0.6703844 -0.220916,-0.1315831 -0.489495,-0.1444495 -0.805853,-0.038475 z"
    style="fill:none;stroke:#ffffff;stroke-width:1.2714;stroke-linecap:round;stroke-linejoin:round;stroke-miterlimit:2.6131;stroke-dasharray:none;stroke-opacity:1" /><path
    id="path5"
    d="m -30.777192,9.8147476 2.822121,-0.9453775 c 0.512636,-0.1718069 0.943384,-0.2530537 1.292281,-0.2438546 0.366864,-0.00771 0.672359,0.064071 0.916337,0.2153678 0.243987,0.1512997 0.427437,0.3845131 0.550349,0.6997498 0.05105,0.1309052 0.0914,0.2819834 0.121101,0.4530138 0.195883,1.2612801 -0.502382,2.1586611 -2.094759,2.6921481 l -0.989806,0.331641 0.319231,1.743557 -1.930521,0.646767 z m 2.169807,0.6548584 0.208523,1.246205 0.834347,-0.279546 c 0.239963,-0.08036 0.419792,-0.216032 0.539589,-0.407014 0.119762,-0.190872 0.139944,-0.388171 0.0605,-0.5919 -0.119128,-0.305483 -0.475936,-0.358688 -1.070321,-0.159614 z m 4.063295,-2.7430241 1.971443,-0.6604012 3.116899,4.8859463 -1.922362,0.643996 -0.37052,-0.665389 -1.930514,0.646657 -0.07937,0.816245 -1.881448,0.630252 z m 1.028411,3.5622621 1.21882,-0.408233 -0.969032,-1.797426 z m 6.413822,-2.0992494 -0.221642,-1.2087405 2.642207,-0.8851897 0.548229,3.0898516 -1.227058,0.411005 -0.182257,-0.514643 c -0.34615,0.598439 -0.892835,1.022967 -1.639967,1.273139 -0.752538,0.252168 -1.414892,0.257488 -1.986889,0.01586 -0.572084,-0.241526 -0.977185,-0.667827 -1.215474,-1.278903 l -0.119531,-0.33009 -0.05329,-0.3029326 c -0.157887,-0.879204 -0.02634,-1.6881346 0.394632,-2.4269006 0.215894,-0.3794155 0.501378,-0.7067335 0.856452,-0.981956 0.355075,-0.2752224 0.780769,-0.4960211 1.277084,-0.6621745 0.267207,-0.089559 0.502408,-0.1505244 0.705516,-0.1828902 0.203193,-0.032481 0.425436,-0.039789 0.666643,-0.021947 0.416685,0.024944 0.779483,0.1488618 1.088307,0.3716554 0.308823,0.2227947 0.541707,0.5354815 0.698736,0.9379509 l 0.01133,0.029158 -1.832349,0.6138463 c -0.232112,-0.4212021 -0.607179,-0.5451238 -1.125289,-0.3715446 -0.850703,0.2849765 -1.084188,1.1171835 -0.700453,2.4965103 0.251503,0.6449935 0.712637,0.8551516 1.3834,0.6304732 0.207227,-0.069382 0.401755,-0.1990731 0.583668,-0.3888361 0.181914,-0.1897621 0.278705,-0.3880598 0.290546,-0.5948931 z m 5.297458,-5.8870783 c 0.867091,-0.2905192 1.592687,-0.3032662 2.1769546,-0.038465 0.2774178,0.1264715 0.5290933,0.3052611 0.754941,0.5367 0.1056296,0.1127276 0.1999329,0.2359847 0.2829948,0.3698819 0.083066,0.1340092 0.1586598,0.288191 0.226705,0.4627692 l 0.1077751,0.276441 0.055258,0.2365385 c 0.1092335,0.5171919 0.08933,1.0474641 -0.059465,1.5908145 -0.1487914,0.5433515 -0.4393383,1.0354925 -0.8717256,1.4764253 -0.4323013,0.4409317 -0.9728929,0.7701349 -1.6218599,0.9874976 -0.87799,0.2941768 -1.611908,0.3055934 -2.201668,0.03436 -0.58976,-0.2712327 -1.00387,-0.712387 -1.242161,-1.323463 L -14.25149,7.7000855 -14.32056,7.451798 -14.37831,7.2326619 c -0.084,-0.5475629 -0.05492,-1.0659743 0.08736,-1.5550127 0.142185,-0.4890374 0.428613,-0.9523605 0.859113,-1.389967 0.430586,-0.4376076 0.973065,-0.7660343 1.627439,-0.9851704 z m 0.229279,1.3706804 c -0.839805,0.2814298 -1.081699,1.099893 -0.72568,2.4557207 0.262831,0.6740343 0.69702,0.9096868 1.302311,0.7069551 0.479925,-0.1608333 0.770816,-0.4899246 0.872756,-0.9873869 0.102027,-0.4974622 0.05938,-0.9863899 -0.127854,-1.4664497 -0.122964,-0.3152367 -0.294837,-0.5386949 -0.515708,-0.670265 -0.22087,-0.1316819 -0.48945,-0.1445396 -0.805825,-0.038573"
    style="fill:#4f597f;fill-opacity:1;fill-rule:nonzero;stroke:none;stroke-width:0.00975255" /><path
    id="path6"
    d="m -30.777192,9.8147476 2.822121,-0.9453775 c 0.512636,-0.1718069 0.943384,-0.2530537 1.292281,-0.2438546 0.366864,-0.00771 0.672359,0.064071 0.916337,0.2153678 0.243987,0.1512997 0.427437,0.3845131 0.550349,0.6997498 0.05105,0.1309052 0.0914,0.2819834 0.121101,0.4530138 0.195883,1.2612801 -0.502382,2.1586611 -2.094759,2.6921481 l -0.989806,0.331641 0.319231,1.743557 -1.930521,0.646767 z m 2.169807,0.6548584 0.208523,1.246205 0.834347,-0.279546 c 0.239963,-0.08036 0.419792,-0.216032 0.539589,-0.407014 0.119762,-0.190872 0.139944,-0.388171 0.0605,-0.5919 -0.119128,-0.305483 -0.475936,-0.358688 -1.070321,-0.159614 z m 4.063295,-2.7430241 1.971443,-0.6604012 3.116899,4.8859463 -1.922362,0.643996 -0.37052,-0.665389 -1.930514,0.646657 -0.07937,0.816245 -1.881448,0.630252 z m 1.028411,3.5622621 1.21882,-0.408233 -0.969032,-1.797426 z m 6.413822,-2.0992494 -0.221642,-1.2087405 2.642207,-0.8851897 0.548229,3.0898516 -1.227058,0.411005 -0.182257,-0.514643 c -0.34615,0.598439 -0.892835,1.022967 -1.639967,1.273139 -0.752538,0.252168 -1.414892,0.257488 -1.986889,0.01586 -0.572084,-0.241526 -0.977185,-0.667827 -1.215474,-1.278903 l -0.119531,-0.33009 -0.05329,-0.3029326 c -0.157887,-0.879204 -0.02634,-1.6881346 0.394632,-2.4269006 0.215894,-0.3794155 0.501378,-0.7067335 0.856452,-0.981956 0.355075,-0.2752224 0.780769,-0.4960211 1.277084,-0.6621745 0.267207,-0.089559 0.502408,-0.1505244 0.705516,-0.1828902 0.203193,-0.032481 0.425436,-0.039789 0.666643,-0.021947 0.416685,0.024944 0.779483,0.1488618 1.088307,0.3716554 0.308823,0.2227947 0.541707,0.5354815 0.698736,0.9379509 l 0.01133,0.029158 -1.832349,0.6138463 c -0.232112,-0.4212021 -0.607179,-0.5451238 -1.125289,-0.3715446 -0.850703,0.2849765 -1.084188,1.1171835 -0.700453,2.4965103 0.251503,0.6449935 0.712637,0.8551516 1.3834,0.6304732 0.207227,-0.069382 0.401755,-0.1990731 0.583668,-0.3888361 0.181914,-0.1897621 0.278705,-0.3880598 0.290546,-0.5948931 z m 5.297458,-5.8870783 c 0.867091,-0.2905192 1.592687,-0.3032662 2.1769546,-0.038465 0.2774178,0.1264715 0.5290933,0.3052611 0.754941,0.5367 0.1056296,0.1127276 0.1999329,0.2359847 0.2829948,0.3698819 0.083066,0.1340092 0.1586598,0.288191 0.226705,0.4627692 l 0.1077751,0.276441 0.055258,0.2365385 c 0.1092335,0.5171919 0.08933,1.0474641 -0.059465,1.5908145 -0.1487914,0.5433515 -0.4393383,1.0354925 -0.8717256,1.4764253 -0.4323013,0.4409317 -0.9728929,0.7701349 -1.6218599,0.9874976 -0.87799,0.2941768 -1.611908,0.3055934 -2.201668,0.03436 -0.58976,-0.2712327 -1.00387,-0.712387 -1.242161,-1.323463 L -14.25149,7.7000855 -14.32056,7.451798 -14.37831,7.2326619 c -0.084,-0.5475629 -0.05492,-1.0659743 0.08736,-1.5550127 0.142185,-0.4890374 0.428613,-0.9523605 0.859113,-1.389967 0.430586,-0.4376076 0.973065,-0.7660343 1.627439,-0.9851704 z m 0.229279,1.3706804 c -0.839805,0.2814298 -1.081699,1.099893 -0.72568,2.4557207 0.262831,0.6740343 0.69702,0.9096868 1.302311,0.7069551 0.479925,-0.1608333 0.770816,-0.4899246 0.872756,-0.9873869 0.102027,-0.4974622 0.05938,-0.9863899 -0.127854,-1.4664497 -0.122964,-0.3152367 -0.294837,-0.5386949 -0.515708,-0.670265 -0.22087,-0.1316819 -0.48945,-0.1445396 -0.805825,-0.038574 z"
    style="fill:none;stroke:#4f597f;stroke-width:0.195064;stroke-linecap:butt;stroke-linejoin:miter;stroke-miterlimit:2.6131;stroke-dasharray:none;stroke-opacity:1" /></g></svg>
