<?xml version="1.0" encoding="UTF-8"?><svg id="a" xmlns="http://www.w3.org/2000/svg" width="123.26" height="32" viewBox="0 0 123.26 32"><defs><style>.b{fill:none;}.c{fill:#fff;}.d{fill:#ee1b4e;}</style></defs><rect class="b" width="123.26" height="32"/><path class="d" d="M107.03,0H16.23C7.27,0,0,7.16,0,16h0c0,8.84,7.27,16,16.23,16h90.8c8.96,0,16.23-7.16,16.23-16h0c0-8.84-7.27-16-16.23-16Z"/><path class="c" d="M9.29,15.56c0,4.8,3.99,8.69,8.9,8.69s8.9-3.89,8.9-8.69-3.98-8.69-8.9-8.69-8.9,3.89-8.9,8.69Z"/><path class="c" d="M18.41,6.87h-.42c-4.8,0-8.69,3.89-8.69,8.69s3.89,8.69,8.69,8.69h.42c4.8,0,8.69-3.89,8.69-8.69s-3.89-8.69-8.69-8.69Z"/><path class="d" d="M17.16,11.12l-2.99,2.12c-.3.22-.53.52-.65.87s-.12.73,0,1.08l1.14,3.41c.12.35.34.65.64.87.3.22.66.33,1.04.33h3.72c.37,0,.74-.12,1.04-.33.3-.22.53-.52.64-.87l1.14-3.41c.12-.35.12-.73,0-1.08-.12-.35-.34-.66-.65-.88l-3-2.12c-.3-.21-.66-.33-1.03-.33s-.73.11-1.03.33Z"/><path class="c" d="M36.71,16.78h-2.34v4.13c0,.57-.48,1.05-1.06,1.05s-1.05-.48-1.05-1.05v-11.22c0-.59.48-1.05,1.05-1.05h3.4c2.26,0,4.09,1.83,4.09,4.09s-1.83,4.05-4.09,4.05M34.37,14.67h2.34c1.1,0,1.96-.87,1.98-1.94-.02-1.1-.87-1.98-1.98-1.98h-2.34v3.92Z"/><path class="c" d="M49.55,17.22v3.73c0,.55-.46,1.01-1.01,1.01-.49,0-.88-.36-.99-.82-.72.51-1.58.82-2.53.82-1.29,0-2.42-.53-3.23-1.39-.82-.88-1.29-2.05-1.29-3.35s.48-2.49,1.29-3.35c.82-.87,1.94-1.43,3.23-1.43.95,0,1.81.32,2.53.84.11-.48.49-.84.99-.84.55,0,1.01.46,1.01,1.03v3.75ZM47.54,17.22c0-.8-.29-1.48-.74-1.96-.46-.51-1.1-.78-1.77-.78s-1.33.27-1.77.78c-.46.48-.72,1.16-.72,1.96s.27,1.46.72,1.96c.44.48,1.08.74,1.77.74s1.31-.27,1.77-.74c.46-.49.74-1.18.74-1.96"/><path class="c" d="M59.14,13.45v7.19c0,2.55-2.02,4.55-4.55,4.55-.68,0-1.39-.19-1.96-.48-.53-.23-.72-.82-.49-1.35.25-.46.89-.67,1.35-.42.36.17.72.27,1.1.27,1.12-.02,2.07-.74,2.38-1.73-.53.3-1.18.46-1.81.46-2.19,0-3.97-1.81-3.97-3.99v-4.49c0-.57.48-1.01.99-1.01.59,0,1.01.44,1.01,1.01v4.49c0,1.1.89,1.94,1.98,1.94s1.96-.84,1.96-1.94v-4.49c0-.57.42-1.01.99-1.01s1.03.44,1.03,1.01"/><path class="c" d="M69.37,16.4v4.55c0,.55-.44,1.01-.99,1.01s-1.01-.46-1.01-1.01v-4.55c0-1.06-.89-1.92-1.98-1.92s-1.9.86-1.9,1.92v4.55c0,.06,0,.11-.04.19-.1.46-.51.82-1.01.82-.57,0-1.01-.46-1.01-1.01v-7.49c0-.55.44-1.01,1.01-1.01.4,0,.76.23.93.59.57-.36,1.27-.59,2.02-.59,2.21,0,3.97,1.81,3.97,3.96"/><path class="c" d="M72.08,20.56c-.82-.84-1.31-2.02-1.31-3.35s.49-2.42,1.31-3.33c.86-.89,1.96-1.45,3.27-1.45s2.4.55,3.18,1.45c.86.91,1.33,2.03,1.33,3.33s-.48,2.51-1.33,3.35c-.78.89-1.92,1.45-3.18,1.45s-2.42-.55-3.27-1.45M72.84,17.22c0,.82.25,1.48.68,2.02.48.46,1.1.7,1.83.7.67,0,1.27-.25,1.75-.7.48-.53.74-1.2.74-2.02s-.27-1.46-.74-1.98c-.48-.42-1.08-.72-1.75-.72-.72,0-1.35.3-1.83.72-.44.51-.68,1.2-.68,1.98"/><path class="c" d="M85.85,16.78h-2.34v4.13c0,.57-.48,1.05-1.06,1.05s-1.05-.48-1.05-1.05v-11.22c0-.59.48-1.05,1.05-1.05h3.4c2.26,0,4.09,1.83,4.09,4.09s-1.83,4.05-4.09,4.05M83.51,14.67h2.34c1.1,0,1.96-.87,1.98-1.94-.02-1.1-.88-1.98-1.98-1.98h-2.34v3.92Z"/><path class="c" d="M98.69,17.22v3.73c0,.55-.46,1.01-1.01,1.01-.49,0-.87-.36-.99-.82-.72.51-1.58.82-2.53.82-1.29,0-2.42-.53-3.23-1.39-.82-.88-1.29-2.05-1.29-3.35s.48-2.49,1.29-3.35c.82-.87,1.94-1.43,3.23-1.43.95,0,1.81.32,2.53.84.11-.48.49-.84.99-.84.55,0,1.01.46,1.01,1.03v3.75ZM96.67,17.22c0-.8-.29-1.48-.74-1.96-.46-.51-1.1-.78-1.77-.78s-1.33.27-1.77.78c-.46.48-.72,1.16-.72,1.96s.27,1.46.72,1.96c.44.48,1.08.74,1.77.74s1.31-.27,1.77-.74c.46-.49.74-1.18.74-1.96"/><path class="c" d="M102.59,10.07c0,.57-.44,1.05-1.03,1.05s-1.03-.48-1.03-1.05v-.4c0-.57.46-1.03,1.03-1.03s1.03.46,1.03,1.03v.4ZM102.59,13.51v7.42c0,.57-.44,1.03-1.03,1.03s-1.03-.46-1.03-1.03v-7.42c0-.61.46-1.05,1.03-1.05s1.03.44,1.03,1.05"/><path class="c" d="M111.89,16.4v4.55c0,.55-.44,1.01-.99,1.01s-1.01-.46-1.01-1.01v-4.55c0-1.06-.89-1.92-1.98-1.92s-1.9.86-1.9,1.92v4.55c0,.06,0,.11-.04.19-.1.46-.51.82-1.01.82-.57,0-1.01-.46-1.01-1.01v-7.49c0-.55.44-1.01,1.01-1.01.4,0,.76.23.93.59.57-.36,1.27-.59,2.02-.59,2.21,0,3.98,1.81,3.98,3.96"/></svg>